<svg width="201" height="107" viewBox="0 0 201 107" fill="none" xmlns="http://www.w3.org/2000/svg">
<g clip-path="url(#clip0)">
<path d="M2.14837 90.202C2.14837 87.8346 4.02141 85.8944 8.19315 85.8944C10.2934 85.9017 12.3445 86.533 14.0877 87.7089L14.6686 86.4473C12.752 85.1654 10.4964 84.4896 8.19315 84.5072C2.91462 84.5072 0.585849 87.1862 0.585849 90.2372C0.585849 98.1787 13.9925 94.2984 13.9925 100.767C13.9925 103.11 12.0894 104.984 7.79749 104.984C4.91283 104.984 2.17842 103.818 0.706039 102.275L-0.0201416 103.446C1.54739 105.17 4.61736 106.372 7.80752 106.372C13.1161 106.372 15.54 103.723 15.54 100.677C15.5601 92.8508 2.14837 96.6708 2.14837 90.202Z" fill="white"/>
<path d="M33.0334 84.5073C26.623 84.5073 21.8654 89.1868 21.8654 95.4395C21.8654 101.692 26.623 106.372 33.0334 106.372C39.4438 106.372 44.2065 101.722 44.2065 95.4395C44.2065 89.1567 39.4338 84.5073 33.0334 84.5073ZM33.0334 104.924C27.5245 104.924 23.4329 100.903 23.4329 95.4395C23.4329 89.9759 27.5445 85.9549 33.0334 85.9549C38.5223 85.9549 42.6089 89.9759 42.6089 95.4395C42.6089 100.903 38.5123 104.924 33.0334 104.924Z" fill="white"/>
<path d="M54.2827 84.6631H52.7202V106.221H66.6477V104.803H54.2827V84.6631Z" fill="white"/>
<path d="M82.4233 84.5073C76.0129 84.5073 71.2552 89.1868 71.2552 95.4395C71.2552 101.692 76.0129 106.372 82.4233 106.372C88.8337 106.372 93.5914 101.722 93.5914 95.4395C93.5914 89.1567 88.8036 84.5073 82.4233 84.5073ZM82.4233 104.924C76.9144 104.924 72.8178 100.903 72.8178 95.4395C72.8178 89.9759 76.9294 85.9549 82.4233 85.9549C87.9172 85.9549 91.9988 89.9759 91.9988 95.4395C91.9988 100.903 87.8871 104.924 82.4233 104.924Z" fill="white"/>
<path d="M122.178 1.4777L121.512 1.18115L121.256 1.23142L90.8319 7.64498L90.7167 8.605L121.266 2.17134V60.7027H84.6419L84.5367 61.6175H145.475V11.9877L122.178 1.4777ZM144.559 60.7027H122.178V2.48296L144.559 12.5808V60.7027Z" fill="white"/>
<path d="M37.2953 18.9289V61.6223H48.859L49.0042 60.7025H38.2118V19.6728L56.0807 15.9081L56.2359 14.938L37.6609 18.8535L37.2953 18.9289Z" fill="white"/>
<path d="M56.236 14.9382L56.0807 15.9083L49.0043 60.7027L48.859 61.6225L48.2531 65.4576H84.086L84.5317 61.6225L84.6369 60.7027L90.7217 8.61006L90.8319 7.64501L91.7283 0L57.2526 8.50953L56.236 14.9382Z" fill="#BC1118"/>
<path d="M108.656 86.1509V92.0668H107.589V87.0858H104.249V92.0668H103.182V86.1509H108.656Z" fill="white"/>
<path d="M116.814 89.1062C116.834 89.5053 116.77 89.9042 116.628 90.2775C116.486 90.6507 116.267 90.99 115.987 91.2738C115.706 91.5576 115.37 91.7796 115 91.9256C114.629 92.0717 114.232 92.1385 113.834 92.122C113.44 92.136 113.048 92.0563 112.69 91.8895C112.333 91.7226 112.019 91.4733 111.776 91.1619V94.2179H110.709V86.1507H111.711V87.0856C111.954 86.7595 112.272 86.4976 112.639 86.3225C113.005 86.1474 113.408 86.0643 113.814 86.0803C114.215 86.06 114.615 86.1244 114.989 86.2695C115.363 86.4145 115.703 86.637 115.986 86.9224C116.269 87.2077 116.489 87.5496 116.631 87.9258C116.774 88.3021 116.836 88.7042 116.814 89.1062ZM115.732 89.1062C115.717 88.7121 115.587 88.331 115.359 88.0105C115.13 87.6899 114.812 87.444 114.445 87.3033C114.078 87.1626 113.678 87.1334 113.294 87.2193C112.911 87.3052 112.561 87.5024 112.288 87.7863C112.015 88.0703 111.832 88.4284 111.76 88.8162C111.689 89.2041 111.733 89.6044 111.886 89.9674C112.04 90.3304 112.297 90.64 112.624 90.8578C112.952 91.0755 113.336 91.1918 113.729 91.1921C114.001 91.2004 114.271 91.1516 114.523 91.0487C114.775 90.9458 115.002 90.7911 115.191 90.5947C115.38 90.3982 115.525 90.1643 115.619 89.9079C115.712 89.6515 115.75 89.3784 115.732 89.1062Z" fill="white"/>
<path d="M117.816 89.1062C117.804 88.4955 117.973 87.8952 118.302 87.3816C118.631 86.8679 119.106 86.4643 119.664 86.2221C120.223 85.9798 120.841 85.9099 121.439 86.0213C122.037 86.1327 122.589 86.4203 123.024 86.8475C123.459 87.2747 123.757 87.8221 123.881 88.4201C124.005 89.0181 123.948 89.6395 123.719 90.2052C123.489 90.7709 123.098 91.2552 122.593 91.5966C122.088 91.9379 121.494 92.1208 120.885 92.1219C120.483 92.1415 120.08 92.0773 119.703 91.9335C119.326 91.7897 118.983 91.5694 118.695 91.2863C118.407 91.0032 118.18 90.6634 118.029 90.2883C117.877 89.9132 117.805 89.5107 117.816 89.1062ZM122.864 89.1062C122.849 88.7121 122.719 88.331 122.49 88.0105C122.261 87.6899 121.943 87.4439 121.576 87.3033C121.209 87.1626 120.809 87.1334 120.426 87.2193C120.042 87.3051 119.692 87.5023 119.42 87.7863C119.147 88.0702 118.963 88.4284 118.892 88.8162C118.821 89.204 118.864 89.6043 119.018 89.9674C119.172 90.3304 119.428 90.64 119.756 90.8578C120.083 91.0755 120.467 91.1918 120.86 91.1921C121.133 91.2028 121.404 91.1556 121.657 91.0535C121.91 90.9514 122.139 90.7968 122.328 90.5998C122.517 90.4028 122.663 90.1679 122.755 89.9105C122.847 89.653 122.884 89.379 122.864 89.1062Z" fill="white"/>
<path d="M130.791 89.4631H126.014C126.084 89.9696 126.343 90.4303 126.739 90.7515C127.136 91.0727 127.639 91.2303 128.147 91.1922C128.466 91.2045 128.783 91.147 129.077 91.0238C129.371 90.9005 129.635 90.7144 129.85 90.4785L130.436 91.1721C130.143 91.4937 129.782 91.7464 129.381 91.9124C128.979 92.0783 128.546 92.1533 128.112 92.1321C126.214 92.1321 124.947 90.8705 124.947 89.1163C124.93 88.7201 124.995 88.3247 125.137 87.9546C125.279 87.5845 125.495 87.2476 125.772 86.9649C126.049 86.6821 126.381 86.4595 126.748 86.3108C127.114 86.1621 127.507 86.0905 127.902 86.1005C129.605 86.1005 130.816 87.3269 130.816 89.1465C130.815 89.2525 130.807 89.3582 130.791 89.4631ZM126.014 88.6941H129.795C129.741 88.2285 129.519 87.7989 129.171 87.487C128.822 87.1752 128.371 87.0028 127.904 87.0028C127.437 87.0028 126.987 87.1752 126.638 87.487C126.289 87.7989 126.067 88.2285 126.014 88.6941Z" fill="white"/>
<path d="M134.763 89.5637H133.541V92.0769H132.474V86.1509H133.541V88.664H134.788L136.701 86.1509H137.843L135.609 88.9958L137.998 92.0668H136.746L134.763 89.5637Z" fill="white"/>
<path d="M143.417 87.0858H141.258V92.0668H140.207V87.0858H138.048V86.1509H143.432L143.417 87.0858Z" fill="white"/>
<path d="M144.509 86.1508H145.575V90.4433L149.186 86.1357H150.158V92.0517H149.091V87.7442L145.485 92.0517H144.484L144.509 86.1508Z" fill="white"/>
<path d="M158.331 89.1062C158.351 89.5076 158.287 89.9087 158.143 90.2837C157.999 90.6587 157.779 90.9993 157.496 91.2835C157.212 91.5677 156.873 91.7891 156.499 91.9335C156.126 92.0779 155.726 92.1421 155.326 92.122C154.932 92.136 154.54 92.0563 154.182 91.8895C153.825 91.7226 153.511 91.4733 153.268 91.1619V94.2179H152.226V86.1507H153.228V87.0856C153.471 86.7595 153.789 86.4976 154.156 86.3225C154.522 86.1474 154.926 86.0643 155.331 86.0803C155.732 86.06 156.132 86.1244 156.506 86.2695C156.88 86.4145 157.22 86.637 157.503 86.9224C157.786 87.2077 158.006 87.5496 158.148 87.9258C158.291 88.3021 158.353 88.7042 158.331 89.1062ZM157.249 89.1062C157.234 88.7121 157.105 88.331 156.876 88.0105C156.647 87.6899 156.329 87.444 155.962 87.3033C155.595 87.1626 155.195 87.1334 154.811 87.2193C154.428 87.3052 154.078 87.5024 153.805 87.7863C153.532 88.0703 153.349 88.4284 153.277 88.8162C153.206 89.2041 153.25 89.6044 153.403 89.9674C153.557 90.3304 153.814 90.64 154.141 90.8578C154.469 91.0755 154.853 91.1918 155.246 91.1921C155.516 91.1983 155.785 91.1478 156.035 91.044C156.285 90.9402 156.511 90.7852 156.698 90.589C156.885 90.3927 157.029 90.1595 157.122 89.9042C157.214 89.6489 157.252 89.3771 157.234 89.1062H157.249Z" fill="white"/>
<path d="M159.333 89.1062C159.321 88.4955 159.49 87.8952 159.819 87.3816C160.149 86.8679 160.623 86.4643 161.181 86.2221C161.74 85.9798 162.358 85.9099 162.956 86.0213C163.554 86.1327 164.106 86.4203 164.541 86.8475C164.976 87.2747 165.274 87.8221 165.398 88.4201C165.522 89.0181 165.465 89.6395 165.236 90.2052C165.007 90.7709 164.615 91.2552 164.11 91.5966C163.605 91.9379 163.011 92.1208 162.403 92.1219C162 92.1415 161.597 92.0773 161.22 91.9335C160.843 91.7897 160.5 91.5694 160.212 91.2863C159.924 91.0032 159.697 90.6634 159.546 90.2883C159.394 89.9132 159.322 89.5107 159.333 89.1062ZM164.381 89.1062C164.366 88.7121 164.236 88.331 164.007 88.0105C163.778 87.6899 163.461 87.4439 163.094 87.3033C162.726 87.1626 162.326 87.1334 161.943 87.2193C161.559 87.3051 161.209 87.5023 160.937 87.7863C160.664 88.0702 160.48 88.4284 160.409 88.8162C160.338 89.204 160.381 89.6043 160.535 89.9674C160.689 90.3304 160.945 90.64 161.273 90.8578C161.6 91.0755 161.985 91.1918 162.378 91.1921C162.65 91.2028 162.922 91.1556 163.174 91.0535C163.427 90.9514 163.656 90.7968 163.845 90.5998C164.034 90.4028 164.18 90.1679 164.272 89.9105C164.364 89.653 164.401 89.379 164.381 89.1062Z" fill="white"/>
<path d="M172.163 90.4433C172.163 91.4486 171.407 92.0769 169.84 92.0769H167.005V86.1509H169.754C171.147 86.1509 171.983 86.6987 171.983 87.6588C171.986 87.9521 171.896 88.2388 171.726 88.4774C171.556 88.7159 171.314 88.894 171.037 88.9857C171.372 89.0436 171.673 89.2253 171.882 89.495C172.09 89.7648 172.191 90.103 172.163 90.4433ZM168.052 88.7042H169.654C170.466 88.7042 170.896 88.4027 170.896 87.8347C170.896 87.2667 170.466 86.9852 169.654 86.9852H168.052V88.7042ZM171.097 90.378C171.097 89.7648 170.711 89.4733 169.83 89.4733H168.052V91.2475H169.754C170.641 91.2375 171.097 90.9711 171.097 90.3679V90.378Z" fill="white"/>
<path d="M178.464 88.4931V92.0668H177.462V91.2827C177.238 91.5767 176.943 91.8088 176.604 91.9574C176.266 92.1059 175.896 92.1661 175.529 92.1322C174.197 92.1322 173.35 91.4184 173.35 90.3931C173.35 89.4431 173.961 88.659 175.719 88.659H177.407V88.4328C177.407 87.5281 176.906 87.0053 175.829 87.0053C175.152 86.9982 174.493 87.2234 173.961 87.6437L173.516 86.8395C174.221 86.3205 175.08 86.0533 175.955 86.0805C177.547 86.0956 178.464 86.8747 178.464 88.4931ZM177.392 90.2574V89.4381H175.764C174.708 89.4381 174.407 89.8502 174.407 90.3529C174.407 90.9409 174.908 91.3129 175.709 91.3129C176.064 91.3348 176.417 91.2448 176.719 91.0556C177.021 90.8663 177.256 90.5873 177.392 90.2574Z" fill="white"/>
<path d="M180.387 86.1509H181.453V88.664H184.814V86.1509H185.88V92.0668H184.814V89.5889H181.453V92.0668H180.387V86.1509Z" fill="white"/>
<path d="M187.959 86.1508H189.026V90.4433L192.641 86.1357H193.608V92.0517H192.541V87.7442L188.94 92.0517H187.939L187.959 86.1508Z" fill="white"/>
<path d="M200.98 89.4631H196.202C196.272 89.9696 196.532 90.4303 196.928 90.7515C197.324 91.0727 197.828 91.2303 198.336 91.1922C198.654 91.2045 198.971 91.147 199.266 91.0238C199.56 90.9005 199.823 90.7144 200.038 90.4785L200.624 91.1721C200.331 91.4937 199.971 91.7464 199.569 91.9124C199.168 92.0783 198.735 92.1533 198.301 92.1321C196.403 92.1321 195.136 90.8705 195.136 89.1163C195.119 88.7201 195.184 88.3247 195.326 87.9546C195.468 87.5845 195.684 87.2476 195.961 86.9649C196.238 86.6821 196.57 86.4595 196.936 86.3108C197.302 86.1621 197.695 86.0905 198.09 86.1005C199.793 86.1005 201.005 87.3269 201.005 89.1465C201.004 89.2525 200.995 89.3582 200.98 89.4631ZM196.202 88.6941H199.983C199.93 88.2285 199.708 87.7989 199.359 87.487C199.011 87.1752 198.56 87.0028 198.093 87.0028C197.626 87.0028 197.175 87.1752 196.827 87.487C196.478 87.7989 196.256 88.2285 196.202 88.6941Z" fill="white"/>
<path d="M103.182 98.918H104.249V103.226L107.859 98.918H108.826V104.829H107.759V100.526L104.148 104.829H103.172L103.182 98.918Z" fill="#BC1118"/>
<path d="M113.343 101.873C113.334 101.465 113.41 101.06 113.564 100.683C113.719 100.305 113.95 99.9642 114.243 99.6809C114.535 99.3976 114.883 99.1782 115.265 99.0365C115.646 98.8948 116.052 98.8338 116.458 98.8575C116.935 98.8287 117.411 98.9309 117.835 99.1532C118.258 99.3755 118.614 99.7094 118.862 100.119L118.046 100.622C117.876 100.353 117.64 100.133 117.359 99.9843C117.079 99.8353 116.765 99.7622 116.448 99.7723C115.898 99.7723 115.371 99.9916 114.982 100.382C114.593 100.772 114.375 101.301 114.375 101.853C114.375 102.405 114.593 102.934 114.982 103.325C115.371 103.715 115.898 103.934 116.448 103.934C116.765 103.944 117.078 103.872 117.358 103.724C117.638 103.576 117.875 103.357 118.046 103.09L118.862 103.592C118.614 104.003 118.259 104.338 117.835 104.562C117.412 104.786 116.936 104.89 116.458 104.864C116.055 104.886 115.651 104.825 115.272 104.684C114.893 104.543 114.547 104.326 114.255 104.046C113.963 103.765 113.732 103.428 113.575 103.054C113.418 102.681 113.339 102.279 113.343 101.873Z" fill="white"/>
<path d="M124.556 99.8529H122.398V104.829H121.331V99.8529H119.173V98.918H124.556V99.8529Z" fill="white"/>
<path d="M131.748 101.873C131.768 102.275 131.704 102.676 131.56 103.051C131.416 103.426 131.196 103.766 130.913 104.051C130.63 104.335 130.29 104.556 129.917 104.701C129.543 104.845 129.143 104.909 128.743 104.889C128.35 104.902 127.959 104.822 127.602 104.655C127.245 104.489 126.933 104.24 126.69 103.929V106.985H125.623V98.9177H126.625V99.8526C126.867 99.5272 127.185 99.2658 127.551 99.0907C127.916 98.9156 128.318 98.8321 128.723 98.8473C129.126 98.8233 129.529 98.885 129.906 99.0285C130.283 99.1719 130.626 99.3938 130.912 99.6796C131.197 99.9653 131.42 100.308 131.564 100.687C131.708 101.065 131.771 101.469 131.748 101.873ZM130.671 101.873C130.657 101.479 130.527 101.098 130.298 100.777C130.069 100.457 129.751 100.211 129.384 100.07C129.017 99.9297 128.617 99.9005 128.233 99.9863C127.85 100.072 127.5 100.269 127.227 100.553C126.954 100.837 126.771 101.195 126.7 101.583C126.628 101.971 126.672 102.371 126.826 102.734C126.979 103.097 127.236 103.407 127.563 103.625C127.891 103.843 128.275 103.959 128.668 103.959C128.942 103.97 129.214 103.924 129.468 103.822C129.723 103.72 129.953 103.566 130.144 103.369C130.334 103.173 130.482 102.938 130.576 102.68C130.671 102.422 130.71 102.147 130.691 101.873H130.671Z" fill="white"/>
<path d="M132.755 101.873C132.743 101.262 132.912 100.662 133.242 100.148C133.571 99.6344 134.046 99.2308 134.604 98.9887C135.163 98.7466 135.781 98.677 136.38 98.7888C136.978 98.9005 137.53 99.1887 137.965 99.6164C138.399 100.044 138.697 100.592 138.821 101.19C138.944 101.789 138.887 102.41 138.656 102.976C138.426 103.541 138.034 104.025 137.528 104.366C137.023 104.707 136.428 104.889 135.82 104.889C135.417 104.909 135.015 104.844 134.638 104.701C134.261 104.557 133.918 104.336 133.631 104.053C133.343 103.77 133.116 103.43 132.966 103.055C132.815 102.68 132.743 102.278 132.755 101.873ZM137.798 101.873C137.783 101.479 137.653 101.098 137.424 100.778C137.195 100.457 136.878 100.211 136.51 100.07C136.143 99.9297 135.743 99.9005 135.36 99.9864C134.976 100.072 134.626 100.269 134.354 100.553C134.081 100.837 133.897 101.195 133.826 101.583C133.755 101.971 133.798 102.371 133.952 102.734C134.106 103.097 134.362 103.407 134.69 103.625C135.017 103.843 135.402 103.959 135.794 103.959C136.067 103.97 136.339 103.923 136.591 103.821C136.844 103.718 137.073 103.564 137.262 103.367C137.451 103.17 137.597 102.935 137.689 102.678C137.781 102.42 137.818 102.146 137.798 101.873Z" fill="white"/>
<path d="M140.427 98.918H141.494V103.226L145.105 98.918H146.076V104.829H145.01V100.526L141.404 104.829H140.402L140.427 98.918Z" fill="white"/>
<path d="M152.537 99.8529H150.378V104.829H149.311V99.8529H147.153V98.918H152.537V99.8529Z" fill="white"/>
<path d="M158.676 102.23H153.894C153.964 102.736 154.223 103.197 154.62 103.518C155.016 103.839 155.519 103.997 156.027 103.959C156.346 103.971 156.663 103.914 156.957 103.79C157.251 103.667 157.515 103.481 157.73 103.245L158.321 103.939C158.027 104.26 157.667 104.512 157.265 104.678C156.864 104.844 156.431 104.919 155.997 104.899C154.094 104.899 152.827 103.637 152.827 101.883C152.81 101.486 152.875 101.091 153.018 100.72C153.16 100.35 153.376 100.013 153.654 99.7297C153.932 99.4469 154.264 99.2244 154.631 99.076C154.998 98.9276 155.391 98.8566 155.787 98.8673C157.485 98.8673 158.697 100.094 158.697 101.913C158.697 102.004 158.687 102.129 158.676 102.23ZM153.894 101.461H157.675C157.621 100.995 157.399 100.566 157.051 100.254C156.702 99.9419 156.251 99.7696 155.784 99.7696C155.317 99.7696 154.867 99.9419 154.518 100.254C154.169 100.566 153.947 100.995 153.894 101.461Z" fill="white"/>
<path d="M165.317 98.918V104.829H164.246V99.8529H161.712L161.646 101.17C161.546 103.256 161.266 104.919 159.934 104.919C159.711 104.917 159.49 104.883 159.278 104.819L159.343 103.914C159.431 103.937 159.522 103.949 159.613 103.949C160.57 103.949 160.615 102.502 160.69 101.104L160.79 98.918H165.317Z" fill="white"/>
<path d="M172.409 102.859C172.409 104.14 171.522 104.869 169.945 104.844H167.386V98.918H168.452V100.928H170.11C171.612 100.939 172.409 101.642 172.409 102.859ZM171.322 102.859C171.322 102.08 170.821 101.743 169.855 101.733H168.452V104.015H169.855C170.821 104.04 171.322 103.638 171.322 102.844V102.859Z" fill="white"/>
<path d="M173.26 101.873C173.251 101.465 173.326 101.06 173.481 100.683C173.636 100.305 173.867 99.9642 174.16 99.6809C174.452 99.3976 174.8 99.1782 175.182 99.0365C175.563 98.8948 175.969 98.8339 176.375 98.8576C176.852 98.8279 177.327 98.9299 177.75 99.1523C178.173 99.3747 178.527 99.7091 178.774 100.119L177.963 100.622C177.792 100.353 177.554 100.133 177.273 99.9844C176.992 99.8354 176.678 99.7624 176.36 99.7723C175.81 99.7723 175.283 99.9916 174.894 100.382C174.505 100.772 174.287 101.301 174.287 101.853C174.287 102.405 174.505 102.934 174.894 103.325C175.283 103.715 175.81 103.934 176.36 103.934C176.677 103.944 176.991 103.872 177.272 103.724C177.553 103.576 177.791 103.357 177.963 103.09L178.774 103.592C178.527 104.003 178.173 104.338 177.75 104.562C177.328 104.786 176.852 104.89 176.375 104.864C175.972 104.886 175.568 104.825 175.189 104.684C174.81 104.543 174.464 104.326 174.172 104.046C173.88 103.765 173.649 103.428 173.492 103.054C173.335 102.681 173.256 102.279 173.26 101.873Z" fill="white"/>
<path d="M184.443 99.8529H182.275V104.829H181.208V99.8529H179.05V98.918H184.428L184.443 99.8529Z" fill="white"/>
<path d="M190.693 103.2C190.693 104.206 189.937 104.829 188.37 104.829H185.535V98.918H188.284C189.677 98.918 190.508 99.4658 190.508 100.426C190.511 100.719 190.422 101.005 190.253 101.243C190.084 101.482 189.843 101.66 189.567 101.753C189.9 101.811 190.2 101.991 190.408 102.258C190.617 102.526 190.718 102.862 190.693 103.2ZM186.582 101.461H188.184C188.996 101.461 189.426 101.16 189.426 100.592C189.426 100.024 188.996 99.7423 188.184 99.7423H186.582V101.461ZM189.627 103.135C189.627 102.522 189.241 102.23 188.36 102.23H186.582V104.015H188.284C189.171 104.015 189.627 103.738 189.627 103.135Z" fill="white"/>
<path d="M191.82 101.873C191.808 101.263 191.978 100.662 192.307 100.149C192.636 99.635 193.11 99.2314 193.669 98.9891C194.227 98.7469 194.845 98.677 195.444 98.7884C196.042 98.8998 196.594 99.1874 197.029 99.6146C197.463 100.042 197.762 100.589 197.885 101.187C198.009 101.785 197.953 102.407 197.724 102.972C197.494 103.538 197.102 104.022 196.598 104.364C196.093 104.705 195.499 104.888 194.89 104.889C194.487 104.909 194.085 104.844 193.708 104.701C193.331 104.557 192.988 104.336 192.7 104.053C192.411 103.77 192.185 103.431 192.033 103.055C191.882 102.68 191.809 102.278 191.82 101.873ZM196.868 101.873C196.854 101.479 196.724 101.098 196.495 100.778C196.266 100.457 195.948 100.211 195.581 100.07C195.214 99.9297 194.814 99.9005 194.43 99.9864C194.047 100.072 193.697 100.269 193.424 100.553C193.152 100.837 192.968 101.195 192.897 101.583C192.825 101.971 192.869 102.371 193.023 102.734C193.176 103.097 193.433 103.407 193.76 103.625C194.088 103.843 194.472 103.959 194.865 103.959C195.138 103.97 195.409 103.923 195.662 103.821C195.915 103.718 196.144 103.564 196.333 103.367C196.522 103.17 196.667 102.935 196.76 102.678C196.852 102.42 196.889 102.146 196.868 101.873Z" fill="white"/>
</g>
<defs>
<clipPath id="clip0">
<rect width="201" height="107" fill="white"/>
</clipPath>
</defs>
</svg>
